<svg xmlns="http://www.w3.org/2000/svg" viewBox="22.26 22.26 512 512">
  <path d="M 278.25 22.26 C 137.0051 22.26 22.26 137.0051 22.26 278.25 C 22.26 419.4949 137.0051 534.24 278.25 534.24 C 419.4949 534.24 534.24 419.4949 534.24 278.25 C 534.24 137.0051 419.4949 22.26 278.25 22.26 z M 278.25 44.52 C 407.4641 44.52 511.98 149.0359 511.98 278.25 C 511.98 407.4641 407.4641 511.98 278.25 511.98 C 149.0359 511.98 44.52 407.4641 44.52 278.25 C 44.52 149.0359 149.0359 44.52 278.25 44.52 z M 233.73 122.43 L 122.43 222.6 L 197.9053 222.6 C 198.1279 254.2871 222.2386 286.3801 264.5549 286.3801 C 268.5617 286.3801 273.0154 285.9341 277.4674 285.4889 C 275.464 290.4974 273.3589 294.612 273.3589 301.4013 C 273.3589 314.2008 279.8126 321.8805 285.4889 329.2263 C 267.347 330.4506 233.6161 332.5592 208.7962 348.0299 C 185.0893 362.3876 177.8626 383.2059 177.8626 397.8975 C 177.8626 428.1711 205.9102 456.33 264.1201 456.33 C 333.1261 456.33 369.7464 417.4924 369.7464 379.0939 C 369.7464 350.935 353.7053 337.0155 336.0086 321.8787 L 321.6614 310.4227 C 317.2094 306.8611 311.0748 301.8491 311.0748 292.9451 C 311.0748 283.9298 317.2128 278.1361 322.4439 272.7937 C 339.2502 259.4377 356.16 244.4174 356.16 214.1438 C 356.16 202.5352 353.4465 193.0876 349.5733 185.3189 L 389.55 151.0376 L 389.55 192.2968 C 382.9277 196.1478 378.42 203.2449 378.42 211.47 L 378.42 278.25 C 378.42 290.5375 388.3925 300.51 400.68 300.51 C 412.9675 300.51 422.94 290.5375 422.94 278.25 L 422.94 211.47 C 422.94 203.2561 418.4324 196.1589 411.81 192.2968 L 411.81 133.56 C 411.81 133.0814 411.5942 132.6797 411.5274 132.2122 L 422.94 122.43 L 233.73 122.43 z M 270.1199 158.4938 C 303.5099 158.4938 320.7701 204.2355 320.7701 233.73 C 320.7701 240.9645 319.8753 253.9857 310.7487 263.4462 C 304.2933 270.0129 293.5085 274.9023 283.3802 274.9023 C 248.9885 274.9023 233.1648 229.5023 233.1648 202.1225 C 233.1648 191.549 235.2882 180.539 242.0775 172.0802 C 248.5329 163.7327 259.769 158.4938 270.1199 158.4938 z M 289.8148 340.6823 C 293.9329 340.6823 295.9563 340.6937 299.184 341.1389 C 329.6802 363.1763 342.8127 374.1932 342.8127 395.0063 C 342.8127 420.2714 322.4361 439.2002 283.815 439.2002 C 240.8532 439.2002 213.2525 418.3819 213.2525 389.3326 C 213.2525 360.2833 238.8472 350.5863 247.7512 347.2473 C 264.5575 341.4597 286.2532 340.6823 289.8148 340.6823 z" fill="#000000"/>
</svg>